<svg xmlns="http://www.w3.org/2000/svg" viewBox="0 0 400 480" width="400" height="480">
  <rect width="400" height="480" fill="#FFFFFF"/>
  <!-- KOREX TOWER — official full lockup -->
  <g transform="translate(0,10)">
    <path d="M200,70 C228,125 236,162 200,208 C164,162 172,125 200,70 Z" fill="#0B7F58"/>
    <path d="M200,105 C214,138 218,160 200,185 C182,160 186,138 200,105 Z" fill="#27B07D"/>
    <polygon points="150,230 250,230 224,340 176,340" fill="#0A0A0A"/>
    <rect x="150" y="230" width="100" height="12" fill="#FFFFFF"/>
    <rect x="163" y="268" width="74" height="10" fill="#FFFFFF"/>
    <rect x="176" y="304" width="48" height="9" fill="#FFFFFF"/>
    <rect x="168" y="340" width="64" height="14" fill="#0A0A0A"/>
  </g>
  <text x="200" y="420" text-anchor="middle" font-family="'Arial Narrow', Arial, sans-serif" font-weight="900" font-size="54" letter-spacing="3" fill="#0A0A0A">KOREX</text>
  <rect x="128" y="434" width="144" height="6" fill="#0B7F58"/>
  <text x="200" y="458" text-anchor="middle" font-family="'Helvetica Neue', Arial, sans-serif" font-weight="400" font-size="10" letter-spacing="6" fill="#5A6B63">INTELLIGENCE SYSTEMS</text>
</svg>
